<?xml version="1.0" encoding="utf-8"?>
<!-- Generator: Adobe Illustrator 16.0.0, SVG Export Plug-In . SVG Version: 6.00 Build 0)  -->
<!DOCTYPE svg PUBLIC "-//W3C//DTD SVG 1.1//EN" "http://www.w3.org/Graphics/SVG/1.1/DTD/svg11.dtd">
<svg version="1.1" id="图层_1" xmlns="http://www.w3.org/2000/svg" xmlns:xlink="http://www.w3.org/1999/xlink" x="0px" y="0px"
	 width="200px" height="200px" viewBox="0 0 200 200" enable-background="new 0 0 200 200" xml:space="preserve">
<g>
	<rect x="35" y="36" fill-rule="evenodd" clip-rule="evenodd" fill="#FFFFFF" width="130" height="9"/>
	<polygon fill-rule="evenodd" clip-rule="evenodd" fill="none" stroke="#FFFFFF" stroke-width="8" stroke-miterlimit="10" points="
		40.52,161 99.998,57.978 159.479,161 	"/>
</g>
<g display="none">
	<path display="inline" fill-rule="evenodd" clip-rule="evenodd" fill="#FFFFFF" d="M10.788,91.191
		c1.084-6.78,1.638-13.462,3.266-19.87c8.394-33.018,29.829-53.246,62.415-61.626c22.698-5.839,44.964-3.583,66.046,6.854
		c23.272,11.521,37.785,30.254,43.69,55.502c1.443,6.164,2.019,12.529,3.021,18.998c4.769,1.745,6.774,7.069,5.401,13.96
		c-0.205,1.044-0.087,1.647,0.741,2.405c2.094,1.92,2.959,4.515,3.123,7.269c0.38,6.394-1.404,11.96-6.622,16.065
		c-0.59,0.466-1.293,0.998-1.988,1.075c-1.982,0.221-2.511,1.506-3.115,3.151c-1.529,4.139-3.966,7.507-8.667,8.488
		c-0.268,0.057-0.586,0.177-0.755,0.377c-1.761,2.076-3.736,4.016-5.186,6.294c-9.421,14.799-21.642,26.33-38.057,33.031
		c-6.313,2.579-12.878,4.132-19.691,4.616c-0.489,0.034-1.18,0.123-1.416,0.45c-2.374,3.256-5.819,4.528-9.556,4.999
		c-5.025,0.632-9.901,0.085-13.935-3.402c-3.318-2.868-3.111-6.926,0.364-9.642c5.331-4.165,15.337-4.389,20.735-0.346
		c1.23,0.925,2.163,2.247,3.739,3.929c3.45-0.669,7.604-1.198,11.599-2.297c16.521-4.537,29.253-14.486,39.378-28.049
		c1.058-1.415,2.047-2.883,3.017-4.359c0.718-1.098,1.44-2.083,1.198-3.669c-0.149-0.963,0.827-2.101,1.342-3.252
		c-3.739-2.392-4.286-6.151-3.31-10.162c2.53-10.342,5.241-20.641,7.927-30.945c0.547-2.097,0.985-4.325,2.047-6.16
		c0.979-1.693,2.753-2.923,4.133-4.398c0.415-0.441,0.99-1.043,0.958-1.538c-1.266-19.227-7.441-36.492-20.804-50.731
		c-12.322-13.135-27.669-20.805-45.256-23.954c-20.482-3.671-40.196-1.057-58.585,8.875C36.038,34.98,23.265,53.63,18.737,78.024
		c-0.654,3.522-0.94,7.118-1.289,10.69c-0.052,0.533,0.319,1.434,0.749,1.639c2.953,1.425,4.579,3.892,5.372,6.882
		c3.013,11.375,5.95,22.768,8.838,34.175c0.369,1.458,0.445,3.042,0.369,4.551c-0.172,3.556-1.915,5.636-5.16,6.487
		c-7.584,1.983-11.931-0.377-14.532-8.018c-0.445-1.31-0.985-2.017-2.41-2.52c-1.646-0.581-3.339-1.639-4.47-2.957
		c-4.243-4.938-5.749-10.688-4.074-17.073c0.333-1.269,0.912-2.683,1.835-3.532c1.562-1.437,1.623-2.887,1.288-4.794
		c-0.291-1.641-0.196-3.413,0.061-5.076C5.93,94.47,7.508,92.588,10.788,91.191z"/>
	<path display="inline" fill-rule="evenodd" clip-rule="evenodd" fill="#FFFFFF" d="M99.878,161.294
		c-2.878-5.987-5.633-11.61-8.28-17.282c-0.588-1.26-1.337-1.872-2.712-2.147c-24.049-4.828-41.931-15.606-46.869-39.464
		c-6.828-32.983,16.314-62.201,49.62-66.628c31.519-4.188,60.059,12.498,66.369,43.418c6.507,31.896-14.617,56.582-46.483,62.591
		c-1.786,0.337-2.836,1.027-3.612,2.74C105.403,150.031,102.696,155.451,99.878,161.294z M74.959,90.768
		c-0.058-3.322-2.818-6.025-6.108-5.976c-3.32,0.052-5.99,2.835-5.896,6.147c0.096,3.35,2.884,6.01,6.174,5.89
		C72.332,96.71,75.01,93.925,74.959,90.768z M131.064,84.793c-3.303,0.02-6.018,2.78-5.999,6.087
		c0.023,3.171,2.757,5.91,5.944,5.949c3.309,0.04,6.032-2.656,6.062-6.004C137.104,87.513,134.373,84.773,131.064,84.793z
		 M99.958,96.815c3.215,0.032,5.968-2.608,6.043-5.8c0.078-3.394-2.479-6.103-5.836-6.183c-3.368-0.081-6.072,2.508-6.14,5.875
		C93.958,94.022,96.641,96.785,99.958,96.815z"/>
</g>
</svg>
