<?xml version="1.0" encoding="utf-8"?>
<!-- Generator: Adobe Illustrator 16.0.0, SVG Export Plug-In . SVG Version: 6.00 Build 0)  -->
<!DOCTYPE svg PUBLIC "-//W3C//DTD SVG 1.1//EN" "http://www.w3.org/Graphics/SVG/1.1/DTD/svg11.dtd">
<svg version="1.1" xmlns="http://www.w3.org/2000/svg" xmlns:xlink="http://www.w3.org/1999/xlink" x="0px" y="0px" width="360px"
	 height="108px" viewBox="0 0 360 108" enable-background="new 0 0 360 108" xml:space="preserve">
<g id="图层_2">
	<g>
		<path fill="#FFFFFF" d="M73.418,27.218v41.78h12.604v6.963H65.759V27.218H73.418z"/>
		<path fill="#FFFFFF" d="M91.731,29.864c1.996-2.135,4.875-3.203,8.634-3.203c3.76,0,6.638,1.068,8.635,3.203
			c1.995,2.136,2.994,5.152,2.994,9.052v25.346c0,3.899-0.999,6.918-2.994,9.052c-1.997,2.136-4.875,3.203-8.635,3.203
			c-3.76,0-6.639-1.067-8.634-3.203c-1.997-2.134-2.994-5.152-2.994-9.052V38.917C88.737,35.017,89.735,32,91.731,29.864z
			 M100.366,69.555c2.646,0,3.969-1.602,3.969-4.805V38.429c0-3.203-1.323-4.805-3.969-4.805s-3.969,1.602-3.969,4.805V64.75
			C96.397,67.953,97.72,69.555,100.366,69.555z"/>
		<path fill="#FFFFFF" d="M118.818,29.829c1.903-2.112,4.711-3.168,8.425-3.168c3.713,0,6.521,1.056,8.426,3.168
			c1.903,2.113,2.855,5.142,2.855,9.087v1.532h-7.242v-2.02c0-1.671-0.326-2.89-0.975-3.656c-0.65-0.766-1.602-1.149-2.855-1.149
			s-2.206,0.383-2.855,1.149c-0.65,0.766-0.975,1.985-0.975,3.656c0,2.043,0.545,3.83,1.636,5.362
			c1.09,1.532,2.727,3.273,4.909,5.223c1.811,1.671,3.272,3.146,4.387,4.421c1.114,1.277,2.065,2.82,2.855,4.631
			c0.789,1.811,1.184,3.876,1.184,6.197c0,3.946-0.975,6.976-2.924,9.087c-1.95,2.113-4.782,3.168-8.495,3.168
			c-3.715,0-6.545-1.055-8.495-3.168c-1.95-2.111-2.925-5.141-2.925-9.087v-2.994h7.242v3.481c0,3.157,1.323,4.735,3.969,4.735
			s3.969-1.578,3.969-4.735c0-2.042-0.546-3.83-1.637-5.361c-1.091-1.532-2.728-3.273-4.909-5.223
			c-1.81-1.671-3.272-3.145-4.387-4.422c-1.114-1.276-2.066-2.82-2.855-4.63c-0.79-1.811-1.184-3.875-1.184-6.197
			C115.963,34.971,116.914,31.942,118.818,29.829z"/>
		<path fill="#FFFFFF" d="M164.427,27.218v6.963h-8.008v41.78h-7.66v-41.78h-8.008v-6.963H164.427z"/>
		<path fill="#FFFFFF" d="M182.184,75.961l-1.323-8.844h-9.4l-1.323,8.844h-7.033l7.799-48.743h11.21l7.799,48.743H182.184z
			 M179.816,60.503l-3.691-24.65l-3.69,24.65H179.816z"/>
		<path fill="#FFFFFF" d="M208.922,73.732c-0.094-0.696-0.14-1.949-0.14-3.76v-7.66c0-2.228-0.395-3.817-1.184-4.77
			c-0.79-0.951-2.066-1.428-3.83-1.428h-2.646v19.846h-7.66V27.218h11.56c3.944,0,6.823,0.917,8.634,2.75
			c1.811,1.834,2.716,4.655,2.716,8.46v3.83c0,5.014-1.671,8.31-5.014,9.888c1.811,0.743,3.109,1.984,3.899,3.726
			c0.789,1.74,1.184,3.958,1.184,6.649v7.521c0,1.393,0.046,2.519,0.14,3.377c0.093,0.86,0.324,1.706,0.696,2.542h-7.799
			C209.2,75.172,209.014,74.429,208.922,73.732z M201.123,49.152h2.994c1.531,0,2.681-0.394,3.446-1.184
			c0.767-0.789,1.149-2.112,1.149-3.969v-4.805c0-1.764-0.313-3.04-0.94-3.83c-0.627-0.789-1.613-1.184-2.959-1.184h-3.69V49.152z"
			/>
		<path fill="#FFFFFF" d="M229.115,60.99v14.971h-7.66V27.218h7.66v21.238l10.026-21.238h7.66l-10.654,21.726l10.654,27.018h-7.869
			l-7.45-19.428L229.115,60.99z"/>
		<path fill="#FF9700" d="M272.009,48.804v15.458c0,3.946-0.975,6.976-2.925,9.087c-1.949,2.113-4.781,3.168-8.495,3.168
			s-6.545-1.055-8.495-3.168c-1.949-2.111-2.925-5.141-2.925-9.087V38.917c0-3.945,0.976-6.975,2.925-9.087
			c1.95-2.112,4.781-3.168,8.495-3.168s6.546,1.056,8.495,3.168c1.95,2.113,2.925,5.142,2.925,9.087v4.735h-7.241v-5.223
			c0-3.203-1.323-4.805-3.97-4.805c-2.646,0-3.969,1.602-3.969,4.805V64.75c0,3.157,1.323,4.735,3.969,4.735
			c2.646,0,3.97-1.578,3.97-4.735v-8.982h-3.482v-6.963H272.009z"/>
		<path fill="#FF9700" d="M279.319,29.864c1.996-2.135,4.875-3.203,8.635-3.203c3.761,0,6.638,1.068,8.635,3.203
			c1.995,2.136,2.994,5.152,2.994,9.052v25.346c0,3.899-0.999,6.918-2.994,9.052c-1.997,2.136-4.874,3.203-8.635,3.203
			c-3.76,0-6.639-1.067-8.635-3.203c-1.996-2.134-2.994-5.152-2.994-9.052V38.917C276.325,35.017,277.323,32,279.319,29.864z
			 M287.954,69.555c2.646,0,3.97-1.602,3.97-4.805V38.429c0-3.203-1.323-4.805-3.97-4.805c-2.646,0-3.969,1.602-3.969,4.805V64.75
			C283.985,67.953,285.309,69.555,287.954,69.555z"/>
		<path fill="#FF9700" d="M312.187,27.218v41.78h12.604v6.963h-20.264V27.218H312.187z"/>
		<path fill="#FF9700" d="M340.247,27.218c3.806,0,6.661,1.022,8.564,3.064c1.903,2.043,2.855,5.038,2.855,8.983v24.649
			c0,3.946-0.952,6.94-2.855,8.983s-4.759,3.063-8.564,3.063h-12.116V27.218H340.247z M335.791,68.998h4.316
			c1.254,0,2.217-0.371,2.891-1.114c0.672-0.742,1.009-1.95,1.009-3.621V38.917c0-1.671-0.337-2.878-1.009-3.621
			c-0.674-0.742-1.637-1.114-2.891-1.114h-4.316V68.998z"/>
	</g>
	<g>
		<polygon fill="#FF9700" points="18.894,26.724 10.513,59.682 25.713,75.025 22.872,85.679 0,63.092 10.655,21.61 		"/>
		<polygon fill="#FF9700" points="26.708,76.019 24.15,85.679 43.896,89.23 		"/>
		<polygon fill="#FF9700" points="11.365,19.621 19.746,24.593 41.055,18.77 		"/>
		<polygon fill="#FFFFFF" points="12.856,57.837 24.15,54.995 29.259,33.259 39.919,30.844 47.59,38.089 42.476,59.257 
			34.805,51.727 31.821,62.523 39.493,69.484 36.651,81.845 44.749,88.237 58.387,35.106 42.618,20.047 21.167,26.298 		"/>
	</g>
</g>
<g id="图层_1">
</g>
</svg>
