<svg xmlns="http://www.w3.org/2000/svg" viewBox="0 0 24 24"><defs><style>.a{fill:none;stroke:#fdfdfd;stroke-miterlimit:10;}.b{fill:#fcdd09;stroke:#fcdd09;stroke-linecap:round;stroke-linejoin:round;}</style></defs><path class="a" d="M23.09,12.05a11,11,0,1,1-11-11A11,11,0,0,1,23.09,12.05Z"/><path class="b" d="M9.72,1.75l-.53.36-.27,0-.05.1-.17,0-.15.09-.14.21v0l0,.15L8,3l.05.19L7.89,3l0,.15-.15.14,0-.05,0,.15.16.18-.08.72.15.07,0,.08-.2.32-.25.11v.21l-.17,0,0,.17L7,5.46l0,0,0,.11,0,.06,0,0-.15.19.06.07-.19.14v.41l.21.1L7,6.46l0,0,.06.11L7,6.77l-.39.34.15.43-.08.13L7,7.86l.34.44.27.55.19.41.49.66,0,.16.17.24.25.23,1.19.53.38.36.09.53,0,.47-.13.7.09.62-.21,1.18.1.32,0,0-.08.19.12,1L10,17.62l-.13.08.21.66-.1.51.12.15,0,.06.17-.1.11,0,.06-.07-.13.17.15.07,0,.1-.11-.06.11.1-.08,0,0,.3.11.11-.11.1.19.11-.19.21.17.06-.17,0v.1l.11-.06-.06.27-.09-.1-.13,0,.11,0h-.08l0-.11-.07.09L10,20.33l-.09,0,.15,0-.06.1-.11.1.11-.08,0,.11.13,0,.08.13-.1.08h.13l-.17.06.21,0,.15.11-.11,0,.08.1L10.17,21l.19.11-.11.06.09,0,0,.19.06-.06.13.15-.15,0,.06.1.06.09-.16,0,.14,0,0,.15.07-.15.06.08-.13.07,0,0,.13,0,0,.15.13.11,0-.11.07.11L10.63,22l.18.06-.2-.09.09-.08,0,.11.15.06-.05.19v-.13l0,.11,0-.08h-.15l0,.21.15-.09h.28l.06.15-.1.13,0-.09-.13,0,.25.13,0-.34.32-.14.18,0-.14-.2h-.13l.13,0-.13-.12.19-.28,0,0,0-.09.06.09,0,0,.08,0v0l.05-.28.38-.34,0-.21-.23,0-.22-.28.13-.25.34-.11,0-.38.23-.21-.16-.11.14,0,.07.1.12-.08,0-.15-.17.11-.15-.11,0-.42.32.12.36-.08v-.51l.09,0L12.84,18l.32.06.28-.06.4-.08.25-.13.24-.38v-.17l-.17-.13.06-.21-.38-.3.06-.42,0,.27.17.17.45.17.55-.06.47-.51.12-.4.38-.45L16,15.28l.19.17-.47.53.39-.31.23-.37.15-.21.3-.23.12-.47-.08-.27.17-.24-.11-.06.15,0,.21-.25.38-.24h.28l.34-.25.23.06.15-.1v.1l.32,0,0-.14.32-.13,0-.17.38-.49.06-.11.09-.4.19-.19L20.2,10l.05-.09.06.15.13-.08.66-.79.38-.49.06-.38-.1-.55-.11-.15-.45-.1L20.48,7,20,6.69l-.7-.08L19,6.39l-.46.28,0-.21.13-.09-.22,0,.17-.13-.1-.21-.15.13,0-.17-.07.06,0-.06-.1,0-.08-.12L18.08,6l0-.13,0,.07-.32-.2,0,.07-.21-.07L17.32,6l.13,0-.11,0L17.25,6,17,6.24,17.06,6l-.38,0,.51-.1.17-.36L16.7,5.5l-.15.28V5.63l-.14.13V5.61l-.15.15.12-.28.47-.38h-.06L16.85,5l-.27-.15-.2-.66-.08-.06,0,.11h0l-.21-.27-.55-.27-.09-.05-1,0-.4-.32-.11.15L14,3.13l-.19-.2-.3-.17-.08,0h-.22V2.51L13,2.36l-.23,0-.05-.06-.12-.11.34-.1-.79,0,.19.06-.47.13-.38-.17-.61.08L10.76,2l-.38,0-.13-.21L10.19,2l.13,0V2l-.11,0-.47.23.11.24.06.06,0,.13-.21.08-.13-.21,0,0,.14-.22L9.62,2l.29-.15Zm1.06,20.49-.06.13.09,0ZM9.91,20.6h0Zm0,0,0,0,.09,0ZM16.94,5.37l-.24,0,.13.11ZM3.53,6.2l-.07.07.15.17-.13.1h.13l.09-.08ZM7,6.56l0,0H6.9l0,.08,0-.06Zm3.2,12.27.09.06-.09,0ZM10,19.1v.47l.1,0,.11-.08-.09-.41Zm.38.77-.09.08.11.06Zm-.26.59.09,0,0,.09Zm.09.55,0,.15h.12Zm0,.17,0,.19h-.15l.13.17.06-.19,0,.21.11-.06Zm-.06.41,0,.1,0-.1Zm1.48.61-.32.09,0,.16h.22l-.11.17.23.11-.06.06,0-.08,0,.06-.26-.1.17.1-.11,0,0-.08-.21.11,1,0,.3-.11-.56-.21Zm-.76.09,0,.14.1.07,0-.07.19-.14Zm-.41,0,.15.1.22.05Zm.37.15-.11.1.13.09.08-.07-.06.07.14-.09Zm.5,0-.06.12.15.07Zm-.21.12,0,.07.13,0Zm.66.24-.3.06.15.11,0-.09h.12V23l.18,0-.22-.15Z"/></svg>