<?xml version="1.0" encoding="utf-8"?>
<!-- Generator: Adobe Illustrator 16.0.0, SVG Export Plug-In . SVG Version: 6.00 Build 0)  -->
<!DOCTYPE svg PUBLIC "-//W3C//DTD SVG 1.1//EN" "http://www.w3.org/Graphics/SVG/1.1/DTD/svg11.dtd">
<svg version="1.1" id="图层_1" xmlns="http://www.w3.org/2000/svg" xmlns:xlink="http://www.w3.org/1999/xlink" x="0px" y="0px"
	 width="24px" height="24px" viewBox="0 0 24 24" enable-background="new 0 0 24 24" xml:space="preserve">
<g id="login">
	<g>
		<circle fill="#F8B700" cx="11.946" cy="8.07" r="4.775"/>
		<path fill="#F8B700" d="M20.703,20.705c0.021-0.229,0.041-0.459,0.041-0.691c0-3.279-2.234-6.086-5.41-7.264
			c-0.65,0.775-1.882,1.309-3.317,1.309c-1.439,0-2.676-0.539-3.325-1.317c-3.187,1.172-5.436,3.983-5.436,7.272
			c0,0.232,0.018,0.465,0.04,0.691H20.703z"/>
	</g>
</g>
<g id="shoppingcart" display="none">
	<g display="inline">
		<circle fill="#233137" cx="17.75" cy="19.905" r="1.738"/>
		<circle fill="#233137" cx="8.082" cy="19.905" r="1.739"/>
		<path fill="#233137" d="M7.393,5.762L20.91,6.427c0,0,1.148,0.279,0.885,2.203c0,0-0.527,3.338-0.73,4.119
			C20.859,13.531,20.697,14,20.117,14S8.064,14,8.064,14L7.79,15.313c0,0,10.038,0,11.687,0c1.25,0.367,0.824,1.922-0.092,2.074
			H6.539c0,0-1.311,0.062-0.854-1.891c0.335-0.794,0.427-2.564,0.184-4.455l-0.58-6.103c0,0-2-0.405-2.427-0.557
			C2.099,4.167,1.638,2.479,3.255,2.356c1.5,0.319,2.917,0.751,2.917,0.751S7.331,3.26,7.331,4.51L7.393,5.762z"/>
	</g>
</g>
</svg>
